HIERARCHY
ROOT hip
{
	OFFSET 0.000000 0.000000 0.000000 
	CHANNELS 6 Xposition Yposition Zposition Xrotation Zrotation Yrotation
	JOINT abdomen
	{
		OFFSET 0.000000 3.402643 0.000000 
		CHANNELS 3 Xrotation Zrotation Yrotation
		JOINT chest
		{
			OFFSET 0.000000 8.438565 -0.680529 
			CHANNELS 3 Xrotation Zrotation Yrotation
			JOINT neck
			{
				OFFSET 0.000000 10.207942 -0.272212 
				CHANNELS 3 Xrotation Zrotation Yrotation
				JOINT head
				{
					OFFSET 0.000000 3.130431 0.000000 
					CHANNELS 3 Xrotation Zrotation Yrotation
					End Site
					{
						OFFSET 0.000000 3.130435 0.000000 
					}
				}
			}
			JOINT lCollar
			{
				OFFSET 3.470700 6.669187 -0.816635 
				CHANNELS 3 Yrotation Zrotation Xrotation
				JOINT lShldr
				{
					OFFSET 3.198488 0.000000 0.000000 
					CHANNELS 3 Zrotation Yrotation Xrotation
					JOINT lForeArm
					{
						OFFSET 10.139888 0.000000 0.000000 
						CHANNELS 3 Yrotation Zrotation Xrotation
						JOINT lHand
						{
							OFFSET 8.370511 0.000000 0.000000 
							CHANNELS 3 Zrotation Yrotation Xrotation
							End Site
							{
								OFFSET 4.083176 0.000000 0.000000 
							}
						}
					}
				}
			}
			JOINT rCollar
			{
				OFFSET -3.470700 6.669187 -0.816635 
				CHANNELS 3 Yrotation Zrotation Xrotation
				JOINT rShldr
				{
					OFFSET -3.198488 0.000000 0.000000 
					CHANNELS 3 Zrotation Yrotation Xrotation
					JOINT rForeArm
					{
						OFFSET -10.139888 0.000000 0.000000 
						CHANNELS 3 Yrotation Zrotation Xrotation
						JOINT rHand
						{
							OFFSET -8.370511 0.000000 0.000000 
							CHANNELS 3 Zrotation Yrotation Xrotation
							End Site
							{
								OFFSET -4.083176 0.000000 0.000000 
							}
						}
					}
				}
			}
		}
	}
	JOINT lThigh
	{
		OFFSET 5.308129 -1.633274 1.361059 
		CHANNELS 3 Xrotation Zrotation Yrotation
		JOINT lShin
		{
			OFFSET -2.041588 -20.007561 0.000000 
			CHANNELS 3 Xrotation Zrotation Yrotation
			JOINT lFoot
			{
				OFFSET 0.000000 -19.190928 -1.224953 
				CHANNELS 3 Xrotation Yrotation Zrotation
				End Site
				{
					OFFSET 0.000000 -2.449906 4.627600 
				}
			}
		}
	}
	JOINT rThigh
	{
		OFFSET -5.308129 -1.633274 1.361059 
		CHANNELS 3 Xrotation Zrotation Yrotation
		JOINT rShin
		{
			OFFSET 2.041588 -20.007561 0.000000 
			CHANNELS 3 Xrotation Zrotation Yrotation
			JOINT rFoot
			{
				OFFSET 0.000000 -19.190928 -1.224953 
				CHANNELS 3 Xrotation Yrotation Zrotation
				End Site
				{
					OFFSET 0.000000 -2.449906 4.627600 
				}
			}
		}
	}
}
MOTION
Frames: 16
Frame Time: 0.011111
14.702994 50.694740 8.179869 174.129562 172.174911 -6.043734 3.977885 6.070557 4.873705 -2.511549 2.439665 1.599834 -16.846458 -7.118711 -0.975777 30.553837 11.130376 -0.515392 12.413046 -14.960623 4.251975 -67.945343 -29.201565 26.583429 -56.644024 9.378074 9.938000 6.992188 16.005859 -53.454338 -6.427974 8.898234 2.089853 66.811073 32.119556 29.323139 58.936447 -9.717099 10.937491 -7.001954 -15.996095 59.052738 -39.408554 12.762525 -7.357437 28.203375 -5.264792 -2.063960 -20.888271 -2.066967 -0.766246 18.465187 7.802334 9.325018 3.522604 5.056921 -0.023602 -17.483120 2.846212 1.172265 
14.657331 50.652199 7.707273 173.988983 172.165665 -5.740803 3.782401 6.170465 4.764452 -2.619546 2.267726 1.561264 -16.570328 -7.117827 -0.653010 30.402594 11.477592 -0.941637 12.413046 -14.960623 4.251975 -67.871231 -29.243729 26.181290 -56.145344 9.297779 9.722775 6.992188 16.005859 -53.962147 -6.427974 8.898234 2.089853 67.033669 31.935356 28.996403 58.914501 -9.712285 10.916060 -7.001954 -15.996095 58.525391 -39.409710 12.635812 -7.116506 28.580778 -5.269256 -2.099306 -20.243164 -1.804302 -0.715924 18.834019 7.733431 9.236447 3.523557 5.056416 -0.013895 -17.451399 2.857600 1.178282 
14.627617 50.584957 7.221229 173.990952 172.351822 -5.642852 3.732335 5.914313 4.962707 -2.668663 2.189692 1.606116 -15.900683 -6.935661 -0.905152 29.369827 11.419865 -1.362630 12.413046 -14.960623 4.251975 -67.763618 -29.370991 25.941080 -55.689228 9.219810 9.530200 6.992188 16.005859 -54.450432 -6.427974 8.898234 2.089853 67.262558 31.809462 28.659891 58.945980 -9.714464 10.929373 -7.001954 -15.996095 58.378902 -39.149155 12.431376 -6.574472 29.160089 -5.255042 -2.158131 -19.711479 -1.587801 -0.652565 19.346697 7.439505 9.295866 3.523551 5.056419 -0.013895 -17.296743 2.771787 1.143975 
14.604160 50.493317 6.731431 174.041382 172.427734 -5.657455 3.784155 5.750581 5.207273 -2.512183 2.261162 1.692412 -15.647683 -6.543106 -1.153226 28.392765 10.783301 -1.903526 12.413046 -14.960623 4.251975 -67.818840 -29.670021 26.071566 -55.307198 9.149989 9.372088 6.992188 16.005859 -54.538322 -6.427974 8.898234 2.089853 67.317978 31.854128 28.325415 59.021358 -9.726175 10.970881 -7.001954 -15.996095 58.544926 -38.788002 12.402103 -5.977643 29.758049 -5.244297 -2.199933 -19.289537 -1.699521 -0.717133 19.960684 7.236275 9.521746 3.522576 5.056941 -0.023600 -17.080446 2.563858 1.079896 
14.579140 50.411686 6.236317 174.155884 172.158813 -5.717164 4.010352 5.993651 5.401194 -2.375557 2.226321 1.745696 -16.219200 -6.569840 -1.082085 28.739275 10.930529 -1.800241 12.413046 -14.960623 4.251975 -67.838982 -30.044518 26.173904 -54.873215 9.070925 9.184024 6.992188 16.005859 -54.450432 -6.427974 8.898234 2.089853 67.343338 31.901167 28.179798 59.074783 -9.733022 10.994269 -7.001954 -15.996095 58.583981 -38.402805 12.684226 -5.575870 30.354727 -5.239432 -2.252160 -18.466438 -1.771997 -0.795168 20.765900 7.332990 9.924790 3.522577 5.057099 -0.013831 -16.897034 2.455552 1.065940 
14.539731 50.367893 5.722749 174.222565 171.981979 -5.773924 4.218171 6.235894 5.449561 -2.444370 2.091454 1.748719 -16.713287 -6.719121 -0.926146 29.438839 11.344585 -1.449275 12.413046 -14.960623 4.251975 -67.919456 -30.359314 25.574299 -54.208069 8.948123 8.910523 6.992188 16.005859 -54.850822 -6.427974 8.898234 2.089853 67.439735 31.766056 28.218470 59.041870 -9.725907 10.972668 -7.001954 -15.996095 58.623043 -38.069221 12.908315 -4.922958 30.921249 -5.234820 -2.303311 -16.913618 -2.016977 -0.924772 21.505192 7.342390 10.307020 3.522416 5.057051 -0.023590 -16.487045 2.274966 1.014770 
14.493442 50.393223 5.200424 174.233734 172.052887 -5.804633 4.283985 6.214904 5.424932 -2.757315 1.964518 1.724188 -16.668766 -6.648866 -0.904665 29.768112 11.337311 -1.382891 12.413046 -14.960623 4.251975 -67.932556 -30.277576 24.878443 -53.595417 8.823870 8.655588 6.992188 16.005859 -55.436760 -6.427974 8.898234 2.089853 67.646217 31.435881 28.057220 58.829575 -9.703006 10.882743 -7.001954 -15.996095 58.603523 -37.835739 12.830370 -4.381190 31.399660 -5.219900 -2.338349 -15.281604 -2.436754 -1.088344 22.052704 7.137568 10.514357 3.523397 5.056686 -0.004115 -15.844777 1.807467 0.892210 
14.444961 50.456406 4.677159 174.313278 172.248398 -5.567709 4.375782 5.982810 5.474465 -3.138310 1.946468 1.720338 -16.650150 -6.660815 -0.914920 30.281292 11.512978 -1.362898 12.413046 -14.960623 4.251975 -67.809349 -30.099161 24.749760 -53.090866 8.725605 8.449573 6.992188 16.005859 -55.925037 -6.427974 8.898234 2.089853 67.853249 31.017357 27.466837 58.647331 -9.676410 10.804668 -7.001954 -15.996095 58.583981 -37.494438 12.469209 -4.298219 31.676382 -5.225559 -2.350925 -13.795691 -2.781133 -1.173373 22.577909 6.894506 10.436336 3.522481 5.057166 -0.013825 -15.238691 1.390175 0.794550 
14.413372 50.508644 4.139195 174.423325 172.604523 -5.184165 4.331225 5.521655 5.168018 -3.244777 2.312364 1.634551 -16.764019 -6.861878 -0.813292 30.733160 11.515879 -1.221149 12.413046 -14.960623 4.251975 -68.084480 -30.162794 24.315935 -52.490002 8.591748 8.199436 6.992188 16.005859 -56.550037 -6.427974 8.898234 2.089853 67.703400 30.656570 27.065939 58.700764 -9.683716 10.826241 -7.001954 -15.996095 58.554688 -36.977413 11.951801 -4.020213 31.705626 -5.230134 -2.372851 -12.249623 -3.423669 -1.310897 23.054640 6.552517 10.137590 3.522476 5.057010 -0.023594 -14.367740 1.010399 0.720379 
14.400235 50.568378 3.588095 174.508759 173.290390 -4.930199 4.189394 4.663691 4.663185 -3.174772 2.878897 1.520041 -16.522083 -7.263849 -0.711713 30.424614 11.519912 -1.090727 12.413046 -14.960623 4.251975 -68.503433 -30.122711 23.674963 -52.049034 8.495788 8.020084 6.992188 16.005859 -56.989494 -6.427974 8.898234 2.089853 67.406273 30.425121 26.873264 58.626804 -9.676518 10.802932 -7.001954 -15.996095 58.330082 -36.208786 11.171318 -3.461106 31.529249 -5.215715 -2.352028 -10.949208 -3.978350 -1.399472 22.256029 6.053670 9.668556 6.029534 5.113831 0.188480 -14.470903 0.939888 0.703619 
14.380843 50.658768 3.031678 174.664719 174.385651 -4.485484 4.084467 3.271281 4.212018 -3.144249 3.270911 1.401994 -15.783703 -7.186749 -0.888195 29.276360 11.229078 -1.423793 12.413046 -14.960623 4.251975 -68.486115 -30.185287 23.530991 -51.608372 8.396098 7.842742 6.992188 16.005859 -57.048088 -6.427974 8.898234 2.089853 67.481842 30.281855 26.393736 58.284218 -9.626018 10.639718 -7.001954 -15.996095 57.812496 -35.143394 9.862540 -2.966856 31.298912 -5.230632 -2.337446 -9.839861 -4.048732 -1.364215 19.676992 5.439362 8.693700 12.099805 5.229846 0.671142 -16.236141 1.447483 0.777224 
14.347376 50.718197 2.468379 174.823563 175.007782 -3.893300 4.045654 2.503953 3.743696 -3.075530 3.340146 1.270491 -15.181835 -6.558922 -1.133272 28.208155 10.385368 -1.920686 12.413046 -14.960623 4.251975 -68.337852 -30.548250 23.284311 -50.875061 8.223782 7.550990 6.992188 16.005859 -57.370350 -6.427974 8.898234 2.089853 67.876686 30.201498 25.610348 57.912907 -9.580322 10.492224 -7.001954 -15.996095 57.285160 -34.183422 8.982997 -2.522290 31.111061 -5.225720 -2.308280 -8.740484 -4.201139 -1.353703 18.258854 5.155840 7.906788 15.961843 5.280107 1.012173 -16.583162 1.414344 0.752177 
14.307029 50.732269 1.913839 174.988510 175.010818 -3.593313 4.161052 2.512883 3.412421 -2.928693 3.368258 1.182016 -15.491458 -6.489014 -1.064707 28.478605 10.347621 -1.795396 12.413046 -14.960623 4.251975 -68.518105 -30.975773 22.456902 -50.143845 8.047612 7.262721 6.992188 16.005859 -58.288322 -6.427974 8.898234 2.089853 68.110771 30.222088 24.970890 57.560715 -9.526730 10.339328 -7.001954 -15.996095 57.060547 -33.356449 8.856732 -2.082037 31.127043 -5.249905 -2.296231 -8.050034 -4.533847 -1.370374 17.241840 5.331294 7.709053 19.155804 5.299380 1.287508 -16.054770 1.151637 0.689787 
14.261052 50.789509 1.367117 175.136108 175.169388 -3.478138 4.299479 2.313365 3.286323 -2.987146 3.438404 1.150679 -16.150175 -6.810374 -0.873445 29.801693 11.040813 -1.393762 12.413046 -14.960623 4.251975 -68.719025 -31.260592 21.604008 -49.601250 7.909849 7.046549 6.992188 16.005859 -59.352772 -6.427974 8.898234 2.089853 68.288521 29.903879 24.281620 57.422310 -9.506127 10.274561 -7.001954 -15.996095 56.806641 -32.542225 8.680019 -1.680196 31.386513 -5.239652 -2.313334 -7.771964 -4.759317 -1.388998 16.257715 5.233988 7.538468 22.014366 5.304190 1.529597 -14.979988 0.803607 0.642086 
14.209758 50.863323 0.806633 175.221741 174.986465 -3.220931 4.321931 2.610844 3.175175 -3.222570 3.209369 1.093723 -16.223322 -6.757359 -0.813118 30.576881 11.321347 -1.212157 12.413046 -14.960623 4.251975 -68.530190 -31.212543 21.228945 -49.236961 7.817653 6.895161 6.992188 16.005859 -59.987545 -6.427974 8.898234 2.089853 68.701202 29.331434 23.305786 57.348316 -9.496885 10.250397 -7.001954 -15.996095 56.289063 -31.963284 8.796420 -1.526863 31.744312 -5.235373 -2.356428 -7.794017 -4.816466 -1.404147 15.365713 5.565161 7.219975 24.794958 5.297376 1.767304 -13.740376 0.324735 0.560784 
14.150331 50.908989 0.238956 175.422302 174.454498 -2.940727 4.392583 3.453059 2.919890 -3.262623 2.869570 1.007571 -16.104317 -6.582513 -0.793448 30.675507 11.078234 -1.180558 12.413046 -14.960623 4.251975 -68.354462 -31.221956 21.044416 -48.892441 7.720119 6.758969 6.992188 16.005859 -60.378162 -6.427974 8.898234 2.089853 68.940895 29.027748 22.697472 56.997509 -9.444182 10.097610 -7.001954 -15.996095 56.005859 -31.310707 9.197138 -1.689534 32.072174 -5.230406 -2.378624 -8.073530 -4.728853 -1.411521 14.586705 6.209996 6.827314 27.573801 5.278323 2.021566 -12.196324 -0.221325 0.509745 
